<svg width="27" height="33" viewBox="0 0 27 33" fill="none" xmlns="http://www.w3.org/2000/svg">
<path d="M22.2576 17.451C22.2738 16.199 22.6073 14.9714 23.227 13.8825C23.8468 12.7936 24.7327 11.8787 25.8024 11.2229C25.1229 10.2552 24.2264 9.45874 23.1843 8.89691C22.1421 8.33508 20.9829 8.02332 19.7988 7.98637C17.2729 7.72198 14.8241 9.49362 13.5369 9.49362C12.2249 9.49362 10.2431 8.01262 8.109 8.05641C6.72862 8.10088 5.38334 8.50116 4.20422 9.21825C3.0251 9.93534 2.05237 10.9448 1.38078 12.1482C-1.52836 17.1708 0.6416 24.5524 3.42832 28.6123C4.82257 30.6004 6.45205 32.821 8.5842 32.7423C10.6706 32.656 11.4499 31.4156 13.9684 31.4156C16.4635 31.4156 17.1946 32.7423 19.37 32.6922C21.6088 32.656 23.0194 30.6953 24.3647 28.6885C25.3665 27.272 26.1374 25.7064 26.6488 24.0497C25.3481 23.5011 24.2381 22.5829 23.4572 21.4094C22.6763 20.236 22.2591 18.8593 22.2576 17.451Z" fill="white"/>
<path d="M18.1486 5.3165C19.3693 3.85518 19.9707 1.97692 19.8251 0.0805664C17.9601 0.275897 16.2374 1.16474 15.0002 2.56998C14.3953 3.25648 13.932 4.05513 13.6368 4.92029C13.3417 5.78544 13.2203 6.70013 13.2799 7.61207C14.2127 7.62164 15.1355 7.42002 15.9789 7.02239C16.8222 6.62476 17.5641 6.04149 18.1486 5.3165Z" fill="white"/>
</svg>
