<svg width="150" height="39" viewBox="0 0 150 39" fill="none" xmlns="http://www.w3.org/2000/svg">
<path d="M22.2576 18.451C22.2738 17.199 22.6073 15.9714 23.227 14.8825C23.8468 13.7936 24.7327 12.8787 25.8024 12.2229C25.1229 11.2552 24.2264 10.4587 23.1843 9.89691C22.1421 9.33508 20.9829 9.02332 19.7988 8.98637C17.2729 8.72198 14.8241 10.4936 13.5369 10.4936C12.2249 10.4936 10.2431 9.01262 8.109 9.05641C6.72862 9.10088 5.38334 9.50116 4.20422 10.2182C3.0251 10.9353 2.05237 11.9448 1.38078 13.1482C-1.52836 18.1708 0.6416 25.5524 3.42832 29.6123C4.82257 31.6004 6.45205 33.821 8.5842 33.7423C10.6706 33.656 11.4499 32.4156 13.9684 32.4156C16.4635 32.4156 17.1946 33.7423 19.37 33.6922C21.6088 33.656 23.0194 31.6953 24.3647 29.6885C25.3665 28.272 26.1374 26.7064 26.6488 25.0497C25.3481 24.5011 24.2381 23.5829 23.4572 22.4094C22.6763 21.236 22.2591 19.8593 22.2576 18.451V18.451Z" fill="white"/>
<path d="M18.1486 6.3165C19.3694 4.85518 19.9707 2.97692 19.8251 1.08057C17.9601 1.2759 16.2374 2.16474 15.0002 3.56998C14.3953 4.25648 13.932 5.05513 13.6368 5.92029C13.3417 6.78544 13.2203 7.70013 13.2799 8.61207C14.2127 8.62164 15.1355 8.42002 15.9789 8.02239C16.8222 7.62476 17.5641 7.04149 18.1486 6.3165Z" fill="white"/>
<path d="M48.6315 28.7095H41.5115L39.8017 33.7442H36.7859L43.5299 15.1172H46.6631L53.4071 33.7442H50.3399L48.6315 28.7095ZM42.2489 26.3863H47.8927L45.1105 18.2154H45.0327L42.2489 26.3863Z" fill="white"/>
<path d="M67.9718 26.9547C67.9718 31.1749 65.7067 33.8863 62.2884 33.8863C61.4225 33.9315 60.5614 33.7326 59.8035 33.3124C59.0457 32.8922 58.4219 32.2676 58.0035 31.5103H57.9388V38.2369H55.1434V20.1636H57.8492V22.4224H57.9006C58.3383 21.6687 58.9727 21.0474 59.7363 20.6247C60.4998 20.2019 61.3641 19.9935 62.237 20.0215C65.6934 20.0216 67.9718 22.7462 67.9718 26.9547ZM65.0985 26.9547C65.0985 24.2052 63.6736 22.3975 61.4996 22.3975C59.3637 22.3975 57.9271 24.2432 57.9271 26.9547C57.9271 29.691 59.3637 31.5235 61.4996 31.5235C63.6736 31.5235 65.0985 29.7291 65.0985 26.9547Z" fill="white"/>
<path d="M82.9611 26.9547C82.9611 31.1749 80.6959 33.8863 77.2777 33.8863C76.4118 33.9315 75.5506 33.7325 74.7928 33.3123C74.035 32.8921 73.4112 32.2676 72.9927 31.5103H72.9281V38.2369H70.1326V20.1636H72.8384V22.4224H72.8898C73.3275 21.6687 73.9619 21.0474 74.7255 20.6247C75.489 20.2019 76.3533 19.9935 77.2262 20.0215C80.6827 20.0215 82.9611 22.7461 82.9611 26.9547ZM80.0878 26.9547C80.0878 24.2052 78.6629 22.3975 76.4888 22.3975C74.353 22.3975 72.9163 24.2432 72.9163 26.9547C72.9163 29.691 74.353 31.5235 76.4888 31.5235C78.6629 31.5235 80.0878 29.7291 80.0878 26.9547H80.0878Z" fill="white"/>
<path d="M92.8677 28.5543C93.0748 30.4015 94.8743 31.6143 97.3333 31.6143C99.6895 31.6143 101.385 30.4014 101.385 28.7359C101.385 27.29 100.362 26.4243 97.9414 25.8311L95.5206 25.2495C92.0906 24.4233 90.4982 22.8237 90.4982 20.228C90.4982 17.0142 93.3069 14.8066 97.2951 14.8066C101.242 14.8066 103.948 17.0142 104.039 20.228H101.217C101.048 18.3691 99.5073 17.2471 97.2554 17.2471C95.0035 17.2471 93.4626 18.3823 93.4626 20.0347C93.4626 21.3516 94.4468 22.1265 96.8544 22.7197L98.9124 23.2236C102.745 24.1274 104.337 25.6626 104.337 28.3872C104.337 31.872 101.554 34.0546 97.1261 34.0546C92.9837 34.0546 90.1868 31.9233 90.0061 28.5541L92.8677 28.5543Z" fill="white"/>
<path d="M110.37 16.9497V20.1636H112.96V22.3711H110.37V29.8579C110.37 31.021 110.889 31.563 112.027 31.563C112.335 31.5576 112.642 31.5361 112.947 31.4985V33.6928C112.435 33.7882 111.915 33.8314 111.394 33.8217C108.637 33.8217 107.562 32.789 107.562 30.1552V22.3711H105.581V20.1636H107.562V16.9497H110.37Z" fill="white"/>
<path d="M114.46 26.9546C114.46 22.6816 116.984 19.9966 120.919 19.9966C124.867 19.9966 127.379 22.6816 127.379 26.9546C127.379 31.2393 124.881 33.9126 120.919 33.9126C116.959 33.9126 114.46 31.2392 114.46 26.9546ZM124.531 26.9546C124.531 24.0234 123.184 22.2935 120.919 22.2935C118.654 22.2935 117.308 24.0366 117.308 26.9546C117.308 29.8975 118.654 31.6143 120.919 31.6143C123.184 31.6143 124.531 29.8975 124.531 26.9546H124.531Z" fill="white"/>
<path d="M129.684 20.1635H132.35V22.475H132.415C132.595 21.7531 133.019 21.1151 133.616 20.6683C134.213 20.2214 134.945 19.993 135.691 20.0214C136.013 20.0203 136.334 20.0552 136.649 20.1254V22.7328C136.242 22.6089 135.818 22.552 135.393 22.5644C134.986 22.548 134.582 22.6194 134.206 22.7737C133.83 22.928 133.492 23.1616 133.215 23.4585C132.939 23.7553 132.73 24.1083 132.603 24.4933C132.476 24.8783 132.434 25.2862 132.48 25.6889V33.7441H129.684L129.684 20.1635Z" fill="white"/>
<path d="M149.537 29.7554C149.161 32.2207 146.753 33.9126 143.673 33.9126C139.711 33.9126 137.252 31.2656 137.252 27.019C137.252 22.7593 139.724 19.9966 143.555 19.9966C147.323 19.9966 149.693 22.5776 149.693 26.6953V27.6504H140.074V27.8188C140.03 28.3186 140.092 28.8221 140.258 29.2959C140.424 29.7697 140.689 30.2028 141.035 30.5667C141.382 30.9305 141.802 31.2166 142.268 31.4061C142.734 31.5955 143.235 31.684 143.738 31.6655C144.398 31.7272 145.061 31.5747 145.628 31.2305C146.194 30.8863 146.635 30.369 146.883 29.7554L149.537 29.7554ZM140.087 25.7021H146.896C146.921 25.2528 146.853 24.803 146.695 24.3812C146.538 23.9594 146.295 23.5746 145.981 23.251C145.667 22.9273 145.29 22.6718 144.872 22.5005C144.455 22.3291 144.007 22.2457 143.555 22.2554C143.1 22.2527 142.649 22.3399 142.228 22.512C141.807 22.6841 141.424 22.9377 141.101 23.2582C140.779 23.5786 140.523 23.9596 140.349 24.379C140.175 24.7985 140.086 25.2482 140.087 25.7022V25.7021Z" fill="white"/>
<path d="M41.8986 1.09658C42.4847 1.05464 43.0727 1.14293 43.6204 1.35508C44.1681 1.56723 44.6618 1.89795 45.0658 2.32339C45.4698 2.74883 45.7741 3.25838 45.9567 3.81528C46.1393 4.37219 46.1957 4.96257 46.1218 5.54384C46.1218 8.40322 44.5721 10.0468 41.8986 10.0468H38.6566V1.09658H41.8986ZM40.0506 8.78108H41.7429C42.1617 8.80604 42.5808 8.73757 42.9696 8.58065C43.3585 8.42373 43.7075 8.18231 43.991 7.87396C44.2745 7.56561 44.4855 7.1981 44.6087 6.79817C44.7318 6.39824 44.764 5.97597 44.7028 5.56208C44.7595 5.14983 44.7241 4.73017 44.5991 4.33318C44.4741 3.93618 44.2625 3.57168 43.9796 3.26578C43.6968 2.95989 43.3495 2.72018 42.9628 2.56382C42.5761 2.40747 42.1595 2.33834 41.7429 2.3614H40.0506V8.78108Z" fill="white"/>
<path d="M47.6966 6.66668C47.654 6.2228 47.7049 5.77495 47.8461 5.35184C47.9872 4.92874 48.2155 4.53973 48.5162 4.20975C48.817 3.87978 49.1836 3.61613 49.5925 3.43572C50.0014 3.2553 50.4437 3.16211 50.8908 3.16211C51.338 3.16211 51.7802 3.2553 52.1891 3.43572C52.598 3.61613 52.9646 3.87978 53.2654 4.20975C53.5661 4.53973 53.7944 4.92874 53.9356 5.35184C54.0767 5.77495 54.1276 6.2228 54.0851 6.66668C54.1284 7.11101 54.0781 7.55948 53.9373 7.98327C53.7966 8.40706 53.5684 8.79678 53.2676 9.1274C52.9668 9.45803 52.5999 9.72223 52.1906 9.90303C51.7812 10.0838 51.3385 10.1772 50.8908 10.1772C50.4431 10.1772 50.0004 10.0838 49.5911 9.90303C49.1817 9.72223 48.8149 9.45803 48.514 9.1274C48.2132 8.79678 47.9851 8.40706 47.8443 7.98327C47.7035 7.55948 47.6532 7.11101 47.6966 6.66668V6.66668ZM52.7101 6.66668C52.7101 5.20257 52.0505 4.34637 50.893 4.34637C49.7311 4.34637 49.0774 5.20257 49.0774 6.66669C49.0774 8.14253 49.7311 8.99213 50.893 8.99213C52.0506 8.99211 52.7101 8.13665 52.7101 6.66668H52.7101Z" fill="white"/>
<path d="M62.5771 10.0469H61.1904L59.7905 5.07226H59.6847L58.2907 10.0469H56.9172L55.0502 3.29248H56.406L57.6194 8.44648H57.7193L59.1118 3.29248H60.3942L61.7868 8.44648H61.8926L63.1 3.29248H64.4368L62.5771 10.0469Z" fill="white"/>
<path d="M66.0071 3.2923H67.2939V4.3653H67.3938C67.5632 3.97992 67.849 3.65686 68.2114 3.44115C68.5737 3.22544 68.9945 3.12783 69.4151 3.16192C69.7446 3.13721 70.0756 3.18677 70.3833 3.30691C70.6911 3.42705 70.9678 3.61471 71.1929 3.85598C71.4181 4.09724 71.5859 4.38593 71.684 4.70066C71.7821 5.01539 71.8079 5.3481 71.7595 5.67412V10.0466H70.4228V6.00886C70.4228 4.92342 69.9498 4.38361 68.9612 4.38361C68.7374 4.37322 68.514 4.4112 68.3064 4.49494C68.0987 4.57869 67.9116 4.70622 67.758 4.8688C67.6044 5.03138 67.4879 5.22515 67.4164 5.43685C67.3449 5.64854 67.3201 5.87315 67.3438 6.09528V10.0467H66.0071L66.0071 3.2923Z" fill="white"/>
<path d="M73.8895 0.655762H75.2263V10.0469H73.8895V0.655762Z" fill="white"/>
<path d="M77.0845 6.6668C77.0419 6.2229 77.0929 5.77502 77.2341 5.3519C77.3753 4.92878 77.6036 4.53975 77.9043 4.20977C78.2051 3.87979 78.5718 3.61614 78.9807 3.43572C79.3897 3.25531 79.8319 3.16211 80.2791 3.16211C80.7263 3.16211 81.1685 3.25531 81.5775 3.43572C81.9864 3.61614 82.353 3.87979 82.6538 4.20977C82.9546 4.53975 83.1829 4.92878 83.3241 5.3519C83.4653 5.77502 83.5162 6.2229 83.4737 6.6668C83.517 7.11115 83.4667 7.55963 83.3258 7.98342C83.185 8.4072 82.9568 8.79692 82.656 9.12753C82.3551 9.45815 81.9882 9.72234 81.5789 9.90313C81.1695 10.0839 80.7268 10.1773 80.2791 10.1773C79.8314 10.1773 79.3886 10.0839 78.9793 9.90313C78.5699 9.72234 78.203 9.45815 77.9022 9.12753C77.6013 8.79692 77.3731 8.4072 77.2323 7.98342C77.0915 7.55963 77.0411 7.11115 77.0845 6.6668V6.6668ZM82.098 6.6668C82.098 5.2027 81.4384 4.3465 80.2809 4.3465C79.119 4.3465 78.4653 5.2027 78.4653 6.66682C78.4653 8.14265 79.119 8.99225 80.2809 8.99225C81.4384 8.99224 82.098 8.13677 82.098 6.6668H82.098Z" fill="white"/>
<path d="M84.881 8.13671C84.881 6.92089 85.7888 6.21996 87.4002 6.12035L89.235 6.01489V5.43188C89.235 4.7185 88.762 4.31567 87.8483 4.31567C87.1021 4.31567 86.585 4.58886 86.4366 5.0664H85.1425C85.2791 3.90624 86.3734 3.16211 87.91 3.16211C89.6081 3.16211 90.5658 4.00511 90.5658 5.43188V10.0469H89.279V9.09765H89.1733C88.9586 9.43814 88.6572 9.71572 88.2997 9.90203C87.9423 10.0883 87.5417 10.1767 87.1388 10.1582C86.8544 10.1876 86.567 10.1574 86.2951 10.0693C86.0232 9.9813 85.7728 9.83741 85.5601 9.64696C85.3474 9.4565 85.1771 9.22371 85.0601 8.96359C84.9431 8.70347 84.8821 8.42179 84.881 8.13671V8.13671ZM89.235 7.55955V6.99486L87.5809 7.10033C86.6481 7.16258 86.2251 7.47899 86.2251 8.07444C86.2251 8.68235 86.7539 9.03611 87.4811 9.03611C87.6941 9.05762 87.9094 9.03616 88.114 8.97303C88.3185 8.90989 88.5083 8.80636 88.6719 8.6686C88.8356 8.53084 88.9697 8.36166 89.0665 8.17113C89.1632 7.98061 89.2205 7.77262 89.235 7.55955V7.55955Z" fill="white"/>
<path d="M92.3227 6.66677C92.3227 4.5325 93.4229 3.18044 95.1343 3.18044C95.5576 3.16099 95.9777 3.2621 96.3455 3.47194C96.7133 3.68178 97.0137 3.99169 97.2114 4.36544H97.3113V0.655762H98.648V10.0469H97.3671V8.97973H97.2613C97.0483 9.35096 96.7375 9.65701 96.3626 9.86474C95.9877 10.0725 95.5629 10.1739 95.1343 10.1582C93.4112 10.1583 92.3227 8.80618 92.3227 6.66677ZM93.7036 6.66677C93.7036 8.09939 94.3808 8.96146 95.5133 8.96146C96.64 8.96146 97.3363 8.08696 97.3363 6.67264C97.3363 5.26492 96.6327 4.37795 95.5133 4.37795C94.3881 4.37795 93.7036 5.24587 93.7036 6.66677Z" fill="white"/>
<path d="M104.179 6.66668C104.136 6.2228 104.187 5.77495 104.328 5.35184C104.469 4.92874 104.698 4.53973 104.998 4.20975C105.299 3.87978 105.666 3.61613 106.075 3.43572C106.484 3.2553 106.926 3.16211 107.373 3.16211C107.82 3.16211 108.262 3.2553 108.671 3.43572C109.08 3.61613 109.447 3.87978 109.747 4.20975C110.048 4.53973 110.277 4.92874 110.418 5.35184C110.559 5.77495 110.61 6.2228 110.567 6.66668C110.611 7.11101 110.56 7.55948 110.419 7.98327C110.279 8.40706 110.051 8.79678 109.75 9.1274C109.449 9.45803 109.082 9.72223 108.673 9.90303C108.263 10.0838 107.821 10.1772 107.373 10.1772C106.925 10.1772 106.482 10.0838 106.073 9.90303C105.664 9.72223 105.297 9.45803 104.996 9.1274C104.695 8.79678 104.467 8.40706 104.326 7.98327C104.186 7.55948 104.135 7.11101 104.179 6.66668V6.66668ZM109.192 6.66668C109.192 5.20257 108.533 4.34637 107.375 4.34637C106.213 4.34637 105.56 5.20257 105.56 6.66669C105.56 8.14253 106.213 8.99213 107.375 8.99213C108.533 8.99211 109.192 8.13665 109.192 6.66668Z" fill="white"/>
<path d="M112.361 3.2923H113.648V4.3653H113.747C113.917 3.97992 114.203 3.65686 114.565 3.44115C114.927 3.22544 115.348 3.12783 115.769 3.16192C116.098 3.13721 116.429 3.18677 116.737 3.30691C117.045 3.42705 117.321 3.61471 117.547 3.85598C117.772 4.09724 117.94 4.38593 118.038 4.70066C118.136 5.01539 118.162 5.3481 118.113 5.67412V10.0466H116.776V6.00886C116.776 4.92342 116.303 4.38361 115.315 4.38361C115.091 4.37322 114.868 4.4112 114.66 4.49494C114.452 4.57869 114.265 4.70622 114.112 4.8688C113.958 5.03138 113.841 5.22515 113.77 5.43685C113.699 5.64854 113.674 5.87315 113.697 6.09528V10.0467H112.361V3.2923Z" fill="white"/>
<path d="M125.667 1.61084V3.32324H127.134V4.44605H125.667V7.91919C125.667 8.62671 125.959 8.93652 126.624 8.93652C126.795 8.93598 126.965 8.92571 127.134 8.90576V10.0161C126.894 10.0589 126.651 10.0817 126.407 10.0842C124.92 10.0842 124.328 9.56273 124.328 8.26049V4.44599H123.253V3.32318H124.328V1.61084H125.667Z" fill="white"/>
<path d="M128.96 0.655762H130.285V4.37794H130.391C130.568 3.98896 130.862 3.66407 131.232 3.44755C131.601 3.23103 132.029 3.1334 132.456 3.16798C132.784 3.15019 133.112 3.20477 133.416 3.32783C133.72 3.4509 133.993 3.6394 134.216 3.87991C134.439 4.12042 134.606 4.407 134.705 4.7192C134.804 5.0314 134.832 5.36153 134.789 5.68604V10.0469H133.451V6.01489C133.451 4.93603 132.947 4.38964 132.002 4.38964C131.772 4.37085 131.541 4.40234 131.325 4.48192C131.109 4.5615 130.913 4.68725 130.75 4.85035C130.588 5.01346 130.463 5.20999 130.385 5.4262C130.306 5.6424 130.276 5.87306 130.297 6.10204V10.0469H128.96L128.96 0.655762Z" fill="white"/>
<path d="M142.583 8.22325C142.401 8.84056 142.008 9.37454 141.471 9.73176C140.935 10.089 140.289 10.2467 139.648 10.1773C139.202 10.1891 138.758 10.1039 138.348 9.92757C137.939 9.75128 137.572 9.48815 137.274 9.15644C136.977 8.82473 136.755 8.4324 136.624 8.00667C136.494 7.58093 136.458 7.132 136.519 6.69103C136.46 6.2487 136.496 5.79881 136.626 5.3718C136.757 4.94479 136.977 4.55064 137.273 4.21603C137.569 3.88142 137.934 3.61416 138.343 3.43235C138.752 3.25054 139.195 3.15842 139.642 3.16222C141.527 3.16222 142.664 4.44622 142.664 6.56722V7.03236H137.881V7.10706C137.86 7.35493 137.891 7.60442 137.973 7.83955C138.054 8.07467 138.184 8.29024 138.354 8.47242C138.523 8.6546 138.73 8.79938 138.959 8.89748C139.188 8.99558 139.435 9.04482 139.685 9.04206C140.005 9.08034 140.328 9.02292 140.615 8.87711C140.902 8.7313 141.139 8.50368 141.296 8.22321L142.583 8.22325ZM137.881 6.0465H141.302C141.319 5.81981 141.288 5.59211 141.211 5.37803C141.135 5.16395 141.014 4.96823 140.857 4.80345C140.7 4.63866 140.51 4.50845 140.3 4.42119C140.089 4.33393 139.863 4.29154 139.635 4.29675C139.404 4.29385 139.174 4.33714 138.96 4.42405C138.746 4.51097 138.551 4.63976 138.388 4.80283C138.224 4.9659 138.095 5.15995 138.008 5.37354C137.921 5.58714 137.878 5.81595 137.881 6.0465H137.881Z" fill="white"/>
</svg>
